<svg xmlns="http://www.w3.org/2000/svg" xmlns:xlink="http://www.w3.org/1999/xlink" width="3000" zoomAndPan="magnify" viewBox="0 0 2250 2250.000011" height="3000" preserveAspectRatio="xMidYMid meet" version="1.0"><defs><clipPath id="6736563d0f"><path d="M 101 87.523438 L 1073 87.523438 L 1073 2161.105469 L 101 2161.105469 Z M 101 87.523438 " clip-rule="nonzero"/></clipPath><clipPath id="5a27f063d3"><path d="M 1162 87.523438 L 2134 87.523438 L 2134 2161.105469 L 1162 2161.105469 Z M 1162 87.523438 " clip-rule="nonzero"/></clipPath></defs><g clip-path="url(#6736563d0f)"><path fill="#000000" d="M 1072.074219 339.550781 C 1072.074219 161.449219 902.324219 87.523438 811.445312 87.523438 C 756.875 87.523438 648.484375 124.328125 589.15625 203.332031 C 560.035156 242.113281 546.933594 286.253906 550.355469 332.898438 C 496.261719 325.011719 408.375 323.105469 354.871094 409.035156 C 316.363281 470.898438 312.382812 521.859375 316.539062 555.101562 C 260.390625 561.988281 160.246094 589.488281 121.601562 696.578125 C 92.511719 777.03125 97.59375 860.042969 122.265625 926.148438 C 122.304688 926.292969 122.304688 926.441406 122.347656 926.585938 C 127.859375 945.183594 137.730469 965.21875 152.015625 984.730469 C 152.203125 985.003906 152.402344 985.261719 152.589844 985.535156 C 153.609375 986.914062 154.578125 988.296875 155.644531 989.664062 C 161.496094 997.800781 167.628906 1005.480469 174.15625 1012.332031 C 148.683594 1033.035156 134.042969 1062.976562 130.636719 1117.882812 C 126.78125 1179.554688 153.558594 1253.953125 200.230469 1292.246094 C 168.394531 1324.753906 140.34375 1373.671875 147.25 1476.535156 C 153.5625 1539.90625 189.066406 1604.207031 239.894531 1644.367188 C 266.628906 1665.488281 296.351562 1678.3125 326.453125 1683.035156 C 328.414062 1683.667969 330.464844 1684.117188 332.59375 1684.335938 C 333.296875 1684.40625 334.140625 1684.378906 334.851562 1684.441406 C 335.71875 1684.53125 336.582031 1684.800781 337.449219 1684.878906 C 342.566406 1714.609375 359.027344 1747.839844 378.253906 1772.761719 C 409.777344 1813.617188 450.234375 1837.257812 494.199219 1841.109375 C 507.109375 1891.570312 536.070312 1967.253906 621.34375 1977.53125 C 627.976562 2025.363281 644.496094 2065.050781 671.039062 2095.875 C 704.167969 2134.316406 751.308594 2156.675781 807.367188 2160.527344 C 813.011719 2160.917969 818.683594 2161.113281 824.375 2161.113281 C 891.402344 2161.113281 960.632812 2134.457031 1008.511719 2089.496094 C 1049.773438 2050.71875 1072.316406 2000.773438 1071.976562 1949.039062 L 1071.976562 840.757812 C 1071.976562 840.742188 1071.976562 840.722656 1071.976562 840.707031 L 1071.976562 342.4375 C 1071.996094 341.453125 1072.074219 340.542969 1072.074219 339.550781 Z M 1012.210938 768.335938 C 987.496094 753.917969 957.410156 743.183594 926.25 739.027344 C 842.070312 727.792969 770.425781 766.1875 729.011719 845.386719 C 681.621094 945.1875 719.085938 1020.402344 745.640625 1056.359375 C 780.085938 1103.007812 832.59375 1134.070312 874.886719 1134.070312 C 878.777344 1134.070312 882.582031 1133.796875 886.28125 1133.273438 C 902.617188 1130.878906 913.933594 1115.722656 911.558594 1099.390625 C 909.183594 1083.058594 893.96875 1071.644531 877.679688 1074.117188 C 863.328125 1076.207031 822.804688 1060.222656 793.726562 1020.863281 C 770.996094 990.074219 750.695312 939.097656 782.5 872.0625 C 818.539062 803.207031 873.585938 793.566406 913.410156 797.691406 C 969.207031 803.390625 1007.128906 834.839844 1012.210938 846.324219 L 1012.210938 1949.226562 C 1012.5 1994.226562 988.113281 2026.640625 967.589844 2045.925781 C 927.378906 2083.710938 867.515625 2104.664062 811.480469 2100.90625 C 783.742188 2099 744.730469 2089.796875 716.347656 2056.859375 C 686.242188 2021.917969 673.351562 1965.882812 678.925781 1896.210938 C 682.980469 1864.265625 722.875 1800.878906 776.160156 1774.222656 C 806.742188 1758.949219 835.949219 1758.992188 862.9375 1774.320312 C 877.289062 1782.507812 895.542969 1777.449219 903.695312 1763.113281 C 911.84375 1748.777344 906.824219 1730.523438 892.476562 1722.371094 C 847.699219 1696.902344 798.234375 1696.359375 749.410156 1720.773438 C 748.355469 1721.304688 747.382812 1722.054688 746.328125 1722.609375 C 733.441406 1709.402344 714.09375 1700.367188 689.828125 1697.585938 C 648.945312 1692.933594 603.878906 1706.765625 596.515625 1742.273438 C 593.167969 1758.445312 603.550781 1774.261719 619.722656 1777.609375 C 633.886719 1780.566406 647.828125 1772.878906 653.289062 1760.058594 C 659.027344 1757.433594 673.71875 1754.824219 688.644531 1757.859375 C 691.246094 1758.386719 693.4375 1759.011719 695.308594 1759.667969 C 653.703125 1798.886719 624.417969 1850.953125 619.476562 1890.046875 C 618.757812 1898.964844 618.46875 1907.546875 618.25 1916.074219 C 573.253906 1904.542969 559.011719 1858.859375 547.121094 1804.867188 L 541.457031 1779.144531 L 515.238281 1781.515625 C 477.160156 1785.015625 449.042969 1763.226562 432.328125 1744.394531 C 413.289062 1722.933594 402.640625 1698.742188 398.105469 1682.265625 C 482.199219 1669.890625 585.90625 1617.578125 613.265625 1474.800781 C 622.582031 1471.453125 631.925781 1467.417969 641.277344 1461.753906 C 641.769531 1461.453125 642.160156 1461.054688 642.628906 1460.730469 C 676.820312 1441.628906 712.585938 1410.675781 736.605469 1370.96875 C 764.640625 1324.644531 772.050781 1274.832031 758.019531 1226.953125 C 753.355469 1211.09375 736.769531 1202.027344 720.929688 1206.675781 C 705.089844 1211.308594 696.015625 1227.921875 700.652344 1243.761719 C 709.972656 1275.574219 704.867188 1307.96875 685.453125 1340.027344 C 666.046875 1372.125 634.992188 1398.070312 607.683594 1411.914062 C 606.984375 1412.308594 606.273438 1412.597656 605.574219 1412.964844 C 596.785156 1417.25 588.402344 1420.308594 581.011719 1421.792969 C 517.097656 1433.929688 453.144531 1372.800781 452.402344 1372.089844 C 440.640625 1360.589844 421.761719 1360.75 410.1875 1372.5 C 398.617188 1384.269531 398.785156 1403.203125 410.546875 1414.761719 C 414.015625 1418.171875 474.488281 1476.46875 549.949219 1483.085938 C 525.5 1572.226562 462.1875 1606.011719 411.089844 1618.445312 L 363.488281 1624.867188 C 360.546875 1625.257812 357.714844 1625.285156 354.851562 1625.40625 C 348.089844 1625.457031 343.152344 1625.203125 340.496094 1625.007812 C 340.210938 1624.980469 339.910156 1624.976562 339.625 1624.941406 C 339.171875 1624.90625 338.761719 1624.867188 338.539062 1624.847656 C 338.464844 1624.839844 338.394531 1624.855469 338.320312 1624.847656 C 312.898438 1621.597656 291.597656 1609.042969 276.953125 1597.472656 C 238.988281 1567.472656 211.421875 1517.679688 206.816406 1471.574219 C 199.898438 1368.394531 232.996094 1340.867188 268.050781 1311.71875 L 317.265625 1270.667969 L 258.9375 1257.011719 C 221.304688 1248.179688 186.65625 1179.847656 190.296875 1121.585938 C 193.296875 1073.21875 204.210938 1060.460938 224.976562 1049.878906 C 255.902344 1068.121094 293.746094 1082.191406 339.367188 1088.460938 C 349.894531 1089.914062 360.132812 1090.582031 370.101562 1090.582031 C 404.460938 1090.582031 435.273438 1082.457031 462.207031 1070.707031 C 475.882812 1078.847656 504.210938 1102.964844 502.53125 1135.777344 C 499.992188 1185.375 465.210938 1223 464.351562 1223.914062 C 452.980469 1235.796875 453.347656 1254.65625 465.207031 1266.09375 C 471.003906 1271.675781 478.480469 1274.457031 485.949219 1274.457031 C 493.78125 1274.457031 501.601562 1271.402344 507.457031 1265.3125 C 509.539062 1263.152344 558.5 1211.597656 562.226562 1138.847656 C 564.371094 1097 543.015625 1062.011719 517.679688 1038.441406 C 556.261719 1009.871094 578.722656 979.722656 580.582031 977.15625 C 590.285156 963.800781 587.316406 945.113281 573.960938 935.410156 C 560.589844 925.695312 541.902344 928.679688 532.207031 942.035156 C 531.726562 942.703125 499.53125 985.976562 446.949219 1011.828125 C 446.945312 1011.832031 446.933594 1011.832031 446.925781 1011.832031 C 446.914062 1011.835938 446.90625 1011.847656 446.898438 1011.851562 C 418.964844 1025.574219 385.371094 1034.464844 347.503906 1029.246094 C 317.117188 1025.070312 291.640625 1016.734375 270.234375 1006.199219 L 249.234375 994.519531 C 228.546875 981.222656 212.882812 965.851562 201.535156 950.886719 C 165.957031 898.023438 145.121094 807.269531 177.804688 716.863281 C 210.53125 626.175781 308.613281 614.285156 342.109375 612.851562 L 430.539062 704.132812 C 411.390625 715.222656 388.511719 721.957031 361.277344 723.207031 C 344.785156 723.964844 332.03125 737.945312 332.789062 754.433594 C 333.527344 770.453125 346.75 782.945312 362.628906 782.945312 C 363.085938 782.945312 363.554688 782.9375 364.019531 782.917969 C 422.414062 780.234375 469.027344 759.949219 502.566406 722.621094 C 561.03125 657.539062 556.035156 564.636719 555.796875 560.714844 C 554.785156 544.234375 540.6875 531.800781 524.136719 532.71875 C 507.652344 533.730469 495.125 547.90625 496.136719 564.375 C 496.167969 564.984375 498.433594 617.941406 472.933594 661.980469 L 379.917969 565.964844 C 375.472656 554.386719 363.007812 509.027344 405.601562 440.59375 C 443.761719 379.296875 507.609375 385.386719 564.457031 395.890625 C 568.058594 396.558594 571.375 397.160156 574.460938 397.691406 L 647.40625 460.355469 C 653.050781 465.199219 659.980469 467.574219 666.875 467.574219 C 675.285156 467.574219 683.648438 464.042969 689.554688 457.164062 C 700.316406 444.644531 698.886719 425.785156 686.367188 415.023438 L 614.035156 352.886719 C 604.105469 311.160156 611.648438 272.929688 636.957031 239.214844 C 682.933594 178.015625 773.597656 147.292969 811.445312 147.292969 C 865 147.292969 1011.863281 192.757812 1012.265625 338.980469 C 1012.261719 339.152344 1012.214844 339.316406 1012.214844 339.488281 L 1012.214844 341.691406 C 1011.253906 472.882812 926.050781 503.914062 915.691406 507.09375 C 902.378906 506.355469 890.949219 514.796875 886.707031 527.523438 C 881.480469 543.171875 889.9375 560.101562 905.597656 565.328125 C 932.363281 574.199219 976.320312 543.46875 981.234375 539.9375 C 990.40625 533.332031 1001.261719 524.128906 1012.214844 512.050781 L 1012.214844 768.335938 Z M 1012.210938 768.335938 " fill-opacity="1" fill-rule="nonzero"/></g><g clip-path="url(#5a27f063d3)"><path fill="#000000" d="M 2111.113281 1118.40625 L 2110.953125 1116.351562 C 2104.902344 1063.148438 2084.703125 1032.410156 2060.300781 1012.5625 C 2122.960938 947.003906 2157.246094 818.71875 2113.117188 696.582031 C 2074.449219 589.484375 1974.316406 561.980469 1918.15625 555.097656 C 1922.320312 521.855469 1918.332031 470.886719 1879.824219 409.03125 C 1826.523438 323.394531 1739 325 1684.90625 332.808594 C 1689.847656 281.953125 1676.90625 234.757812 1646.628906 194.433594 C 1591.460938 120.980469 1492.164062 87.523438 1423.257812 87.523438 C 1332.386719 87.523438 1162.628906 161.449219 1162.628906 339.550781 C 1162.628906 340.4375 1162.699219 341.246094 1162.707031 342.121094 L 1162.707031 1948.839844 C 1162.375 2000.789062 1184.910156 2050.730469 1226.183594 2089.492188 C 1274.070312 2134.464844 1343.304688 2161.105469 1410.300781 2161.105469 C 1416.003906 2161.105469 1421.664062 2160.910156 1427.308594 2160.519531 C 1529.824219 2153.503906 1597.785156 2085.703125 1613.25 1977.539062 C 1698.21875 1967.351562 1727.339844 1892.214844 1740.324219 1841.746094 C 1783.679688 1840.054688 1822.105469 1823.925781 1850.382812 1795.113281 C 1878.949219 1766.007812 1895.800781 1724.933594 1897.84375 1681.316406 C 2010.628906 1665.070312 2077.996094 1598.839844 2088.597656 1492.53125 C 2096.578125 1411.808594 2077.273438 1344.46875 2031.15625 1291.800781 C 2075.757812 1260.632812 2115.238281 1211 2111.113281 1118.40625 Z M 1276.09375 1988.796875 C 1260.875 1988.796875 1248.519531 1976.441406 1248.519531 1961.226562 C 1248.519531 1946.011719 1260.875 1933.65625 1276.09375 1933.65625 C 1291.3125 1933.65625 1303.667969 1946.011719 1303.667969 1961.226562 C 1303.667969 1976.441406 1291.308594 1988.796875 1276.09375 1988.796875 Z M 1262.996094 2013.183594 L 1262.996094 2041.800781 C 1249.359375 2028.101562 1235.042969 2008.863281 1227.632812 1984.097656 C 1234.433594 1998.429688 1247.320312 2009.21875 1262.996094 2013.183594 Z M 1968.75 1259.597656 L 1928.976562 1280.316406 L 1963.417969 1309.054688 C 1996.441406 1336.582031 2039.171875 1384.949219 2029.113281 1486.628906 C 2020.507812 1572.742188 1966.898438 1617.902344 1865.210938 1624.652344 L 1834.09375 1626.734375 L 1837.480469 1657.730469 C 1841.507812 1694.460938 1830.378906 1730.164062 1807.707031 1753.261719 C 1790.917969 1770.371094 1768.480469 1780.035156 1741.902344 1781.765625 L 1732.496094 1469.960938 L 1819.261719 1391.164062 C 1830.335938 1398.691406 1843.691406 1403.105469 1858.0625 1403.105469 C 1896.222656 1403.105469 1927.261719 1372.074219 1927.261719 1333.921875 C 1927.261719 1295.765625 1896.222656 1264.734375 1858.0625 1264.734375 C 1819.90625 1264.734375 1788.867188 1295.765625 1788.867188 1333.921875 C 1788.867188 1348.25 1793.246094 1361.574219 1800.738281 1372.625 L 1705.953125 1458.675781 L 1715.710938 1781.175781 L 1693.230469 1779.136719 L 1687.566406 1804.859375 C 1674.4375 1864.542969 1658.316406 1914.070312 1601.207031 1918.589844 L 1601.207031 1648.78125 L 1563.339844 1613.261719 L 1563.339844 1476.226562 L 1646.503906 1394.21875 C 1655.234375 1400.34375 1665.808594 1404.003906 1677.253906 1404.003906 C 1706.886719 1404.003906 1731.019531 1379.878906 1731.019531 1350.246094 C 1731.019531 1320.617188 1706.890625 1296.488281 1677.253906 1296.488281 C 1647.613281 1296.488281 1623.484375 1320.613281 1623.484375 1350.246094 C 1623.484375 1358.9375 1625.753906 1367.03125 1629.433594 1374.300781 L 1537.144531 1465.292969 L 1537.144531 1588.695312 L 1487.605469 1542.222656 L 1487.605469 1355.136719 C 1510.902344 1349.25 1528.273438 1328.277344 1528.273438 1303.183594 C 1528.273438 1273.550781 1504.148438 1249.421875 1474.511719 1249.421875 C 1444.875 1249.421875 1420.746094 1273.546875 1420.746094 1303.183594 C 1420.746094 1328.273438 1438.121094 1349.242188 1461.414062 1355.136719 L 1461.414062 1553.546875 L 1575.015625 1660.105469 L 1575.015625 1920.90625 C 1572.285156 1922.011719 1569.78125 1923.554688 1567.511719 1925.425781 C 1567.070312 1925.78125 1566.582031 1926.066406 1566.164062 1926.449219 C 1566.054688 1926.546875 1565.972656 1926.671875 1565.863281 1926.773438 C 1561.753906 1930.609375 1558.734375 1935.601562 1557.308594 1941.289062 C 1557.152344 1941.910156 1557.121094 1942.578125 1557 1943.210938 C 1556.773438 1944.453125 1556.484375 1945.675781 1556.410156 1946.96875 C 1552.433594 2013.695312 1527.238281 2060.488281 1484.136719 2083.988281 L 1431.523438 2035.414062 L 1431.523438 1906.621094 C 1454.824219 1900.734375 1472.191406 1879.761719 1472.191406 1854.667969 C 1472.191406 1825.035156 1448.066406 1800.90625 1418.425781 1800.90625 C 1388.785156 1800.90625 1364.660156 1825.03125 1364.660156 1854.667969 C 1364.660156 1879.757812 1382.035156 1900.730469 1405.328125 1906.621094 L 1405.328125 2046.894531 L 1457.359375 2094.894531 C 1446.722656 2097.964844 1435.386719 2100.070312 1423.191406 2100.90625 C 1376.679688 2104.015625 1327.589844 2089.871094 1289.179688 2063.367188 L 1289.179688 2013.183594 C 1312.476562 2007.292969 1329.847656 1986.320312 1329.847656 1961.226562 C 1329.847656 1931.597656 1305.71875 1907.46875 1276.082031 1907.46875 C 1248.339844 1907.46875 1225.695312 1928.683594 1222.878906 1955.691406 C 1222.769531 1953.457031 1222.457031 1951.328125 1222.472656 1949.027344 L 1222.472656 1693.660156 L 1246.289062 1719.460938 L 1392.632812 1719.460938 C 1398.773438 1743.757812 1420.648438 1761.875 1446.832031 1761.875 C 1477.773438 1761.875 1502.929688 1736.71875 1502.929688 1705.800781 C 1502.929688 1674.882812 1477.769531 1649.726562 1446.832031 1649.726562 C 1420.648438 1649.726562 1398.773438 1667.839844 1392.632812 1692.140625 L 1258.238281 1692.140625 L 1222.472656 1653.390625 L 1222.472656 1487.988281 L 1272.347656 1487.988281 C 1278.457031 1514.894531 1302.476562 1535.089844 1331.207031 1535.089844 C 1364.539062 1535.089844 1391.664062 1507.96875 1391.664062 1474.640625 C 1391.664062 1441.292969 1364.539062 1414.171875 1331.207031 1414.171875 C 1302.472656 1414.171875 1278.453125 1434.371094 1272.34375 1461.296875 L 1222.472656 1461.296875 L 1222.472656 1069.226562 C 1252.902344 1069.027344 1281.796875 1068.988281 1312.097656 1068.984375 L 1312.097656 1201.125 C 1295.007812 1204.992188 1282.191406 1220.230469 1282.191406 1238.480469 C 1282.191406 1259.632812 1299.390625 1276.832031 1320.566406 1276.832031 C 1341.71875 1276.832031 1358.917969 1259.632812 1358.917969 1238.480469 C 1358.917969 1220.234375 1346.105469 1204.996094 1329.03125 1201.125 L 1329.03125 1074.746094 C 1359.84375 1105.734375 1389.820312 1136.730469 1419.921875 1167.929688 L 1431.578125 1179.996094 L 1443.761719 1168.242188 L 1432.125 1156.160156 C 1415.246094 1138.671875 1398.410156 1121.246094 1381.453125 1103.84375 L 1513.542969 1103.84375 C 1517.417969 1120.921875 1532.648438 1133.730469 1550.898438 1133.730469 C 1572.070312 1133.730469 1589.273438 1116.53125 1589.273438 1095.371094 C 1589.273438 1074.210938 1572.074219 1056.992188 1550.898438 1056.992188 C 1532.648438 1056.992188 1517.414062 1069.8125 1513.542969 1086.898438 L 1364.753906 1086.898438 C 1354.160156 1076.105469 1343.628906 1065.300781 1332.847656 1054.515625 L 1330.355469 1052.035156 L 1326.851562 1052.035156 C 1290.90625 1052.035156 1257.835938 1052.050781 1222.476562 1052.28125 L 1222.476562 1010.703125 C 1319.929688 1009.898438 1417.617188 1010.179688 1513.511719 1011.582031 C 1517.347656 1028.714844 1532.617188 1041.585938 1550.90625 1041.585938 C 1572.074219 1041.585938 1589.277344 1024.367188 1589.277344 1003.210938 C 1589.277344 982.050781 1572.078125 964.839844 1550.90625 964.839844 C 1532.691406 964.839844 1517.492188 977.605469 1513.578125 994.632812 C 1417.648438 993.238281 1319.921875 992.992188 1222.480469 993.757812 L 1222.480469 920.617188 L 1246.824219 946.980469 L 1337.652344 946.980469 C 1341.457031 962.0625 1355.015625 973.308594 1371.261719 973.308594 C 1390.449219 973.308594 1406.054688 957.695312 1406.054688 938.507812 C 1406.054688 919.324219 1390.445312 903.710938 1371.261719 903.710938 C 1355.015625 903.710938 1341.457031 914.953125 1337.652344 930.035156 L 1254.253906 930.035156 L 1222.480469 895.632812 L 1222.480469 800.683594 L 1264.519531 780.855469 L 1429.933594 842.300781 L 1650.710938 738.160156 C 1656.367188 745.421875 1663.902344 751.03125 1672.78125 754.222656 C 1678.210938 756.175781 1683.835938 757.140625 1689.4375 757.140625 C 1696.597656 757.140625 1703.738281 755.566406 1710.398438 752.414062 C 1734.933594 740.847656 1745.5 711.457031 1733.921875 686.914062 C 1728.320312 675.027344 1718.414062 666.027344 1706.039062 661.582031 C 1693.679688 657.128906 1680.292969 657.769531 1668.421875 663.390625 C 1656.511719 668.992188 1647.519531 678.898438 1643.085938 691.273438 C 1639.890625 700.152344 1639.425781 709.53125 1641.4375 718.519531 L 1428.925781 818.738281 L 1292.027344 767.882812 L 1421.179688 706.96875 L 1458.25 602.0625 L 1625.636719 523.117188 C 1635.0625 535.105469 1649.246094 542.179688 1664.183594 542.179688 C 1671.210938 542.179688 1678.332031 540.667969 1685.082031 537.488281 C 1709.621094 525.914062 1720.167969 496.523438 1708.609375 471.980469 L 1708.609375 471.972656 C 1697.03125 447.4375 1667.609375 436.910156 1643.089844 448.46875 C 1621.9375 458.445312 1611.261719 481.660156 1616.105469 503.597656 L 1440.777344 586.289062 L 1403.710938 691.195312 L 1222.488281 776.664062 L 1222.488281 512.046875 C 1233.433594 524.121094 1244.28125 533.320312 1253.445312 539.925781 C 1258.371094 543.460938 1302.132812 574.285156 1329.101562 565.328125 C 1344.765625 560.113281 1353.210938 543.1875 1347.992188 527.535156 C 1343.828125 515.007812 1332.152344 507.085938 1319.644531 507.085938 C 1319.429688 507.085938 1319.21875 507.085938 1319.023438 507.09375 C 1308.644531 503.910156 1223.34375 472.855469 1222.488281 341.453125 L 1222.488281 339.484375 C 1222.488281 339.332031 1222.445312 339.1875 1222.441406 339.035156 C 1222.765625 206.351562 1343.464844 156.75 1405.910156 148.660156 L 1386.683594 166.40625 L 1386.683594 309.683594 C 1363.101562 314.699219 1345.335938 335.652344 1345.335938 360.703125 C 1345.335938 389.480469 1368.765625 412.894531 1397.542969 412.894531 C 1426.320312 412.894531 1449.75 389.480469 1449.75 360.703125 C 1449.75 335.652344 1431.980469 314.699219 1408.402344 309.683594 L 1408.402344 175.925781 L 1438.4375 148.214844 C 1492.925781 152.683594 1561.410156 180.511719 1598.828125 230.324219 C 1625.066406 265.242188 1632.21875 306.617188 1620.625 353.261719 L 1585.945312 386.960938 C 1574.113281 398.472656 1573.839844 417.390625 1585.359375 429.222656 C 1591.214844 435.253906 1599 438.28125 1606.78125 438.28125 C 1614.292969 438.28125 1621.804688 435.46875 1627.625 429.828125 L 1660.773438 397.613281 C 1663.714844 397.105469 1666.820312 396.542969 1670.21875 395.917969 C 1727.09375 385.410156 1790.921875 379.332031 1829.078125 440.605469 C 1870.457031 507.085938 1859.894531 551.671875 1855.351562 564.480469 L 1824.605469 590.460938 C 1811.996094 601.113281 1810.398438 619.976562 1821.0625 632.582031 C 1826.976562 639.578125 1835.40625 643.179688 1843.90625 643.179688 C 1850.71875 643.179688 1857.566406 640.863281 1863.175781 636.125 L 1890.828125 612.761719 C 1921.988281 613.800781 2019.210938 624.40625 2054.523438 711.507812 L 1795.558594 711.507812 L 1648.9375 862.488281 L 1648.9375 1015.160156 C 1623.214844 1021 1603.910156 1043.945312 1603.910156 1071.410156 C 1603.910156 1103.257812 1629.847656 1129.183594 1661.703125 1129.183594 C 1693.558594 1129.183594 1719.496094 1103.257812 1719.496094 1071.410156 C 1719.496094 1043.949219 1700.1875 1021.003906 1674.46875 1015.160156 L 1674.46875 872.839844 L 1806.34375 737.015625 L 2063.199219 737.015625 C 2081.535156 803.363281 2072.519531 868.238281 2051.53125 916.703125 L 1843.488281 916.703125 L 1758.550781 1014.734375 L 1758.550781 1108.515625 C 1732.832031 1114.351562 1713.523438 1137.300781 1713.523438 1164.75 C 1713.523438 1196.597656 1739.464844 1222.535156 1771.320312 1222.535156 C 1803.171875 1222.535156 1829.113281 1196.597656 1829.113281 1164.75 C 1829.113281 1137.300781 1809.804688 1114.351562 1784.085938 1108.515625 L 1784.085938 1024.246094 L 1855.132812 942.207031 L 2038.519531 942.207031 C 2026.867188 961.671875 2013.300781 976.8125 1999.261719 986.253906 L 1914.191406 986.253906 C 1897.691406 986.253906 1884.300781 999.628906 1884.300781 1016.140625 C 1884.300781 1032.648438 1897.691406 1046.023438 1914.191406 1046.023438 L 2001.277344 1046.023438 C 2030.089844 1059.875 2046.105469 1076.816406 2051.472656 1122.101562 C 2054.566406 1199.050781 2022.105469 1231.796875 1968.75 1259.597656 Z M 1815.0625 1333.921875 C 1815.0625 1310.203125 1834.347656 1290.921875 1858.066406 1290.921875 C 1881.789062 1290.921875 1901.070312 1310.203125 1901.070312 1333.921875 C 1901.070312 1357.636719 1881.789062 1376.917969 1858.066406 1376.917969 C 1834.347656 1376.917969 1815.0625 1357.636719 1815.0625 1333.921875 Z M 1649.683594 1350.242188 C 1649.683594 1335.027344 1662.039062 1322.671875 1677.257812 1322.671875 C 1692.472656 1322.671875 1704.832031 1335.027344 1704.832031 1350.242188 C 1704.832031 1365.460938 1692.472656 1377.8125 1677.257812 1377.8125 C 1662.039062 1377.8125 1649.683594 1365.460938 1649.683594 1350.242188 Z M 1474.515625 1330.75 C 1459.296875 1330.75 1446.941406 1318.398438 1446.941406 1303.179688 C 1446.941406 1287.964844 1459.296875 1275.609375 1474.515625 1275.609375 C 1489.734375 1275.609375 1502.089844 1287.964844 1502.089844 1303.179688 C 1502.089844 1318.398438 1489.730469 1330.75 1474.515625 1330.75 Z M 1418.433594 1882.238281 C 1403.214844 1882.238281 1390.859375 1869.882812 1390.859375 1854.667969 C 1390.859375 1839.449219 1403.214844 1827.097656 1418.433594 1827.097656 C 1433.652344 1827.097656 1446.007812 1839.449219 1446.007812 1854.667969 C 1446.007812 1869.882812 1433.652344 1882.238281 1418.433594 1882.238281 Z M 1418.082031 1705.808594 C 1418.082031 1689.949219 1430.980469 1677.050781 1446.84375 1677.050781 C 1462.71875 1677.050781 1475.625 1689.949219 1475.625 1705.808594 C 1475.625 1721.667969 1462.722656 1734.566406 1446.84375 1734.566406 C 1430.984375 1734.566406 1418.082031 1721.667969 1418.082031 1705.808594 Z M 1297.457031 1474.648438 C 1297.457031 1456.027344 1312.597656 1440.875 1331.21875 1440.875 C 1349.84375 1440.875 1364.984375 1456.03125 1364.984375 1474.648438 C 1364.984375 1493.269531 1349.84375 1508.40625 1331.21875 1508.40625 C 1312.597656 1508.402344 1297.457031 1493.265625 1297.457031 1474.648438 Z M 1320.574219 1217.050781 C 1332.386719 1217.050781 1341.996094 1226.679688 1341.996094 1238.488281 C 1341.996094 1250.300781 1332.382812 1259.910156 1320.574219 1259.910156 C 1308.765625 1259.910156 1299.128906 1250.296875 1299.128906 1238.488281 C 1299.128906 1226.683594 1308.765625 1217.050781 1320.574219 1217.050781 Z M 1529.464844 1095.378906 C 1529.464844 1083.558594 1539.097656 1073.949219 1550.910156 1073.949219 C 1562.722656 1073.949219 1572.351562 1083.558594 1572.351562 1095.378906 C 1572.351562 1107.191406 1562.722656 1116.800781 1550.910156 1116.800781 C 1539.097656 1116.800781 1529.464844 1107.1875 1529.464844 1095.378906 Z M 1529.464844 1003.214844 C 1529.464844 991.402344 1539.097656 981.792969 1550.910156 981.792969 C 1562.722656 981.792969 1572.351562 991.40625 1572.351562 1003.214844 C 1572.351562 1015.03125 1562.722656 1024.644531 1550.910156 1024.644531 C 1539.097656 1024.644531 1529.464844 1015.03125 1529.464844 1003.214844 Z M 1353.421875 938.511719 C 1353.421875 928.667969 1361.441406 920.664062 1371.265625 920.664062 C 1381.113281 920.664062 1389.132812 928.671875 1389.132812 938.511719 C 1389.132812 948.355469 1381.113281 956.363281 1371.265625 956.363281 C 1361.441406 956.363281 1353.421875 948.359375 1353.421875 938.511719 Z M 1663.539062 698.617188 C 1666.011719 691.710938 1671.050781 686.175781 1677.6875 683.039062 C 1681.425781 681.289062 1685.394531 680.402344 1689.382812 680.402344 C 1692.515625 680.402344 1695.667969 680.9375 1698.703125 682.035156 C 1705.609375 684.515625 1711.140625 689.539062 1714.269531 696.171875 C 1720.734375 709.875 1714.835938 726.285156 1701.136719 732.757812 C 1694.5 735.859375 1687.066406 736.277344 1680.117188 733.761719 C 1673.210938 731.28125 1667.683594 726.257812 1664.550781 719.613281 C 1661.417969 712.988281 1661.046875 705.523438 1663.539062 698.617188 Z M 1652.347656 468.117188 C 1656.125 466.339844 1660.113281 465.5 1664.046875 465.5 C 1674.355469 465.5 1684.261719 471.320312 1688.953125 481.238281 C 1695.414062 494.945312 1689.515625 511.367188 1675.816406 517.839844 C 1662.101562 524.289062 1645.675781 518.402344 1639.214844 504.703125 C 1632.753906 491 1638.648438 474.585938 1652.347656 468.117188 Z M 1397.535156 330.25 C 1414.328125 330.25 1428.007812 343.917969 1428.007812 360.707031 C 1428.007812 377.496094 1414.328125 391.164062 1397.535156 391.164062 C 1380.742188 391.164062 1367.0625 377.496094 1367.0625 360.707031 C 1367.0625 343.917969 1380.738281 330.25 1397.535156 330.25 Z M 1661.691406 1039.140625 C 1679.476562 1039.140625 1693.949219 1053.613281 1693.949219 1071.410156 C 1693.949219 1089.191406 1679.476562 1103.664062 1661.691406 1103.664062 C 1643.90625 1103.664062 1629.429688 1089.191406 1629.429688 1071.410156 C 1629.425781 1053.613281 1643.90625 1039.140625 1661.691406 1039.140625 Z M 1771.300781 1132.492188 C 1789.085938 1132.492188 1803.5625 1146.964844 1803.5625 1164.75 C 1803.5625 1182.53125 1789.085938 1197.007812 1771.300781 1197.007812 C 1753.515625 1197.007812 1739.039062 1182.53125 1739.039062 1164.75 C 1739.039062 1146.964844 1753.515625 1132.492188 1771.300781 1132.492188 Z M 1771.300781 1132.492188 " fill-opacity="1" fill-rule="nonzero"/></g></svg>