<?xml version="1.0" standalone="no"?>
<!DOCTYPE svg PUBLIC "-//W3C//DTD SVG 20010904//EN"
 "http://www.w3.org/TR/2001/REC-SVG-20010904/DTD/svg10.dtd">
<svg version="1.0" xmlns="http://www.w3.org/2000/svg"
 width="940.000000pt" height="800.000000pt" viewBox="0 0 940.000000 800.000000"
 preserveAspectRatio="xMidYMid meet">
<metadata>
Created by Potrace Professional 1.1m
</metadata>
<g transform="translate(0.000000,800.000000) rotate(-360.00) scale(0.095238,-0.095238)"
fill="#000000" stroke="none">
<path d="M0 4200 l0 -4200 4935 0 4935 0 0 4200 0 4200 -4935 0 -4935 0 0
-4200z m4384 3780 c132 -11 222 -38 273 -83 20 -17 58 -44 86 -60 46 -28 56
-29 149 -27 112 4 149 16 207 68 104 93 236 116 565 101 199 -9 318 -29 383
-62 60 -30 197 -79 246 -88 62 -12 145 -55 208 -109 31 -26 81 -59 111 -73 30
-14 66 -40 79 -58 13 -18 57 -66 98 -107 52 -52 82 -92 98 -132 50 -122 68
-142 201 -231 110 -74 142 -89 270 -131 133 -43 148 -51 189 -95 25 -26 71
-60 103 -75 37 -18 74 -47 102 -80 24 -29 65 -66 90 -83 25 -18 61 -56 80 -86
19 -29 53 -69 76 -87 23 -18 50 -52 60 -74 42 -91 62 -125 90 -155 40 -42 81
-134 106 -237 11 -46 41 -130 66 -186 63 -140 75 -221 75 -533 0 -286 -11
-360 -74 -499 -20 -45 -55 -155 -78 -244 -36 -143 -46 -171 -89 -233 -29 -43
-48 -83 -48 -100 0 -16 17 -54 38 -86 21 -30 64 -108 95 -171 31 -64 74 -140
94 -169 48 -69 66 -171 67 -364 0 -225 -37 -436 -82 -464 -5 -3 -32 -61 -60
-129 -28 -68 -55 -130 -61 -138 -6 -7 -36 -30 -67 -51 -31 -21 -72 -56 -90
-78 -17 -22 -56 -56 -85 -75 -30 -18 -76 -54 -103 -79 l-49 -45 26 -70 c49
-130 70 -266 64 -407 -7 -163 -22 -224 -68 -291 -21 -30 -60 -102 -87 -160
-46 -99 -53 -108 -111 -145 -34 -22 -74 -57 -88 -78 -29 -42 -86 -71 -211
-109 -43 -12 -108 -37 -145 -54 -80 -37 -192 -65 -321 -80 -107 -12 -205 -42
-238 -71 -12 -11 -45 -68 -72 -126 -30 -65 -59 -112 -73 -119 -38 -20 -106
-86 -122 -118 -18 -34 -65 -60 -197 -109 -51 -19 -111 -47 -134 -61 -22 -15
-79 -38 -127 -51 -78 -21 -112 -23 -329 -23 -270 -1 -265 -2 -392 82 -158 105
-179 113 -285 112 -90 0 -100 -2 -161 -36 -36 -20 -91 -54 -122 -75 -119 -82
-125 -84 -389 -84 -273 0 -365 15 -462 73 -32 19 -70 38 -84 43 -14 4 -66 24
-115 44 -76 31 -101 48 -164 112 -41 41 -88 87 -105 102 -17 15 -42 57 -56 93
-48 121 -73 151 -160 187 -42 18 -106 40 -140 50 -35 10 -98 35 -142 54 -43
20 -99 41 -126 47 -90 22 -182 71 -241 129 -32 30 -81 71 -109 89 -43 30 -56
48 -97 134 -26 55 -46 102 -46 105 0 2 -18 31 -38 64 -63 98 -86 311 -51 465
9 37 26 117 39 177 l23 108 -47 41 c-26 23 -73 55 -105 72 -32 17 -78 52 -102
78 -25 26 -63 57 -86 69 -23 12 -55 39 -71 61 -17 22 -62 70 -101 108 -57 55
-75 80 -92 131 -12 34 -38 89 -58 121 -83 132 -99 197 -99 409 1 219 14 279
99 425 21 35 50 100 65 144 16 44 46 105 68 134 l41 53 -41 76 c-28 55 -51
123 -78 235 -20 87 -54 196 -75 243 -66 149 -74 211 -74 549 0 344 10 414 80
570 23 50 51 131 62 178 35 150 49 185 93 233 23 25 59 81 79 124 23 48 64
108 107 155 38 43 81 98 95 122 17 28 49 58 91 85 36 23 89 62 118 88 72 65
118 90 209 119 57 17 114 47 201 106 131 88 148 106 210 223 26 49 57 89 83
110 23 18 73 64 111 103 52 53 92 82 163 117 51 27 106 61 120 76 38 42 86 63
215 94 64 16 154 44 200 64 154 64 231 79 451 88 87 3 165 7 174 8 8 1 67 -2
131 -7z"/>
<path d="M3932 7664 c-114 -12 -187 -32 -277 -77 -38 -19 -116 -50 -174 -68
-112 -35 -151 -55 -234 -122 -29 -23 -77 -55 -106 -70 -34 -19 -68 -49 -96
-88 -24 -32 -67 -81 -95 -108 -43 -42 -54 -62 -78 -140 -16 -51 -38 -100 -52
-113 -16 -15 -56 -27 -134 -41 -123 -23 -187 -47 -247 -95 -22 -17 -75 -49
-118 -72 -58 -30 -90 -55 -121 -95 -23 -30 -64 -70 -90 -90 -31 -23 -58 -57
-78 -97 -17 -34 -56 -92 -87 -130 -45 -56 -61 -87 -88 -173 -18 -58 -51 -141
-72 -184 -22 -43 -47 -103 -56 -133 -28 -96 -42 -289 -35 -507 8 -295 20 -364
76 -476 25 -50 54 -121 63 -157 23 -87 41 -121 81 -145 31 -19 54 -20 297 -20
339 -1 326 -5 489 153 157 153 184 166 340 166 156 1 201 -20 332 -154 130
-133 151 -177 151 -323 -1 -150 -21 -191 -159 -328 -137 -134 -170 -149 -324
-149 -157 0 -186 14 -337 163 -156 154 -163 157 -419 157 -172 0 -200 -3 -253
-23 -74 -28 -136 -90 -189 -189 -21 -41 -51 -88 -67 -107 -62 -72 -84 -158
-84 -344 -1 -194 29 -313 93 -371 13 -12 40 -53 61 -94 23 -43 54 -83 76 -100
21 -15 58 -50 83 -77 26 -28 71 -62 105 -77 33 -16 85 -49 117 -74 43 -33 82
-52 151 -72 105 -30 154 -59 153 -93 0 -55 -22 -168 -38 -199 -9 -19 -32 -52
-51 -74 -66 -77 -96 -290 -63 -458 18 -91 22 -99 78 -163 32 -37 72 -88 88
-114 24 -40 43 -54 110 -86 45 -21 97 -50 116 -64 89 -68 162 -86 426 -104
135 -10 147 -20 174 -144 24 -109 31 -123 94 -193 26 -30 61 -73 76 -96 21
-32 47 -51 110 -81 45 -21 101 -52 124 -69 24 -18 79 -40 127 -52 112 -29 363
-40 493 -21 l94 13 112 113 112 113 12 80 c8 57 12 414 12 1193 l0 1112 -38
37 -37 37 -356 0 -356 0 -38 -37 -38 -38 4 -290 c3 -347 -6 -320 162 -490 101
-102 116 -124 137 -184 32 -90 32 -192 1 -284 -20 -61 -33 -79 -139 -184 -108
-108 -122 -119 -188 -141 -59 -19 -88 -23 -158 -19 -123 8 -178 36 -300 157
-134 133 -152 174 -152 329 0 157 14 186 163 337 166 168 157 127 157 657 l0
431 35 36 36 35 515 0 515 1 37 37 38 37 0 608 0 608 -38 37 -37 38 -347 0
-347 -1 -36 36 -35 36 0 347 0 347 -38 37 -37 38 -104 0 c-156 0 -192 -17
-330 -154 -148 -146 -190 -167 -342 -167 -149 0 -195 22 -326 152 -130 131
-152 177 -152 326 0 147 24 198 148 326 126 128 178 152 335 151 156 0 184
-14 334 -162 162 -160 154 -157 492 -157 l263 0 36 -36 36 -36 0 -347 0 -347
37 -37 37 -37 188 0 188 0 38 37 38 38 -5 952 c-3 656 -8 968 -16 1004 -6 29
-14 64 -17 77 -4 13 -24 44 -46 68 -22 24 -55 66 -73 93 -62 92 -79 97 -332
100 -122 1 -264 -2 -316 -8z"/>
<path d="M5345 7667 c-62 -10 -99 -36 -139 -95 -18 -27 -51 -68 -73 -92 -21
-24 -44 -62 -50 -84 -23 -88 -32 -291 -32 -726 l0 -453 37 -37 37 -37 606 0
c540 0 613 1 659 17 40 14 77 43 174 136 157 153 184 166 340 166 156 1 201
-20 332 -154 130 -133 151 -177 150 -323 0 -148 -17 -184 -149 -319 -138 -140
-177 -158 -333 -158 -157 0 -186 14 -337 163 -172 170 -100 157 -834 157
l-608 0 -37 -38 -37 -37 0 -1701 -1 -1702 37 -36 36 -37 292 4 c349 3 321 -6
493 163 106 105 123 118 187 139 95 32 225 26 310 -13 83 -37 248 -206 283
-289 38 -89 42 -202 10 -294 -22 -64 -35 -82 -140 -187 -105 -106 -123 -119
-184 -139 -92 -31 -194 -31 -284 1 -60 21 -81 36 -184 138 -169 168 -156 163
-502 163 l-282 1 -36 -37 -37 -36 4 -491 c3 -340 8 -503 16 -528 8 -22 53 -76
122 -142 l109 -107 74 -12 c224 -37 557 3 646 78 16 14 70 44 118 67 73 35 92
50 114 87 14 24 45 63 69 86 57 55 71 83 95 193 15 68 26 96 45 113 27 23 18
22 354 42 197 11 266 29 376 95 31 19 79 42 105 52 70 26 112 60 154 126 20
31 43 60 51 63 35 13 68 83 81 170 25 176 -7 388 -70 463 -70 84 -88 201 -88
574 l0 248 -36 36 -36 35 -684 1 -685 0 -36 35 -35 36 0 347 c0 434 5 413
-153 572 -147 147 -168 190 -168 343 0 147 24 198 148 326 124 127 179 152
330 152 151 0 198 -22 327 -155 130 -133 151 -177 151 -323 0 -153 -21 -196
-168 -343 -148 -149 -152 -161 -152 -414 l0 -190 35 -36 36 -35 685 0 684 -1
36 -35 36 -36 0 -249 c0 -232 1 -251 21 -287 12 -21 34 -47 48 -57 26 -19 27
-19 62 8 20 15 49 52 64 82 15 30 46 79 68 108 48 62 66 110 82 212 16 101 14
357 -3 452 -13 71 -19 82 -67 131 -29 30 -65 77 -81 104 -15 28 -56 74 -90
104 l-62 54 0 96 c0 105 11 139 75 234 21 30 45 85 55 126 34 133 71 237 107
303 59 107 71 191 71 499 1 315 -11 396 -79 524 -23 44 -56 126 -74 184 -28
88 -40 113 -82 157 -27 29 -62 77 -78 106 -32 61 -166 206 -241 262 -29 21
-61 50 -72 64 -11 14 -66 48 -122 74 -56 27 -119 63 -141 80 -48 38 -102 55
-259 82 -121 20 -161 40 -173 83 -42 155 -53 182 -99 236 -27 31 -62 80 -78
110 -19 37 -45 64 -84 90 -30 20 -68 53 -84 74 -31 38 -79 67 -149 89 -23 7
-94 38 -158 69 -73 36 -140 61 -183 68 -82 14 -521 22 -588 12z"/>
<path d="M2918 6112 c-29 -30 -30 -35 -30 -127 0 -92 1 -97 30 -127 30 -29 35
-30 124 -30 92 0 94 0 127 34 32 33 34 38 34 122 0 85 -1 88 -36 123 -35 35
-37 36 -127 36 -87 0 -93 -2 -122 -31z"/>
<path d="M6787 6107 c-35 -35 -35 -38 -35 -124 0 -86 0 -89 34 -122 34 -33 37
-33 127 -33 88 0 94 1 123 30 29 30 31 35 31 127 0 92 -2 97 -31 127 -29 29
-35 31 -122 31 -90 0 -92 -1 -127 -36z"/>
<path d="M5942 4600 c-29 -29 -30 -35 -30 -122 0 -90 0 -92 35 -127 35 -35 38
-35 124 -35 86 0 89 0 122 34 33 34 34 37 34 127 0 88 -2 94 -31 123 -30 29
-35 31 -127 31 -92 0 -97 -2 -127 -31z"/>
<path d="M2923 4427 c-35 -35 -35 -38 -35 -124 0 -86 0 -89 34 -122 34 -33 37
-33 127 -33 88 0 94 1 123 30 29 30 31 35 31 127 0 92 -2 97 -31 127 -29 29
-35 31 -122 31 -90 0 -92 -1 -127 -36z"/>
<path d="M3595 2243 c-35 -35 -35 -37 -35 -127 0 -87 1 -93 30 -122 30 -29 35
-30 127 -30 92 0 97 1 127 30 29 30 31 35 31 125 0 92 -1 95 -34 127 -32 31
-37 33 -122 33 -86 0 -89 -1 -124 -36z"/>
<path d="M6115 2243 c-35 -35 -35 -38 -35 -125 0 -86 1 -91 32 -122 31 -31 35
-32 127 -32 90 0 95 1 125 30 29 30 31 35 31 127 0 92 -2 97 -31 127 -29 29
-35 31 -122 31 -90 0 -92 -1 -127 -36z"/>
</g>
</svg>
